<svg xmlns="http://www.w3.org/2000/svg" width="960" height="380" viewBox="0 0 960 380">
<rect width="100%" height="100%" fill="white"/>
<style>text{font-family:Segoe UI,Arial;font-size:13px;fill:#111827}.title{font-size:18px;font-weight:600}.grid{stroke:#d1d5db;stroke-width:1}.axis{stroke:#111827;stroke-width:1.5}.train{stroke:#2563eb;fill:none;stroke-width:2.5}.validation{stroke:#dc2626;fill:none;stroke-width:2.5}</style>
<text class="title" x="55.0" y="28">Loss</text>
<line class="grid" x1="55.0" y1="55.0" x2="450.0" y2="55.0"/>
<text x="47.0" y="59.0" text-anchor="end">2.018</text>
<line class="grid" x1="55.0" y1="106.0" x2="450.0" y2="106.0"/>
<text x="47.0" y="110.0" text-anchor="end">1.653</text>
<line class="grid" x1="55.0" y1="157.0" x2="450.0" y2="157.0"/>
<text x="47.0" y="161.0" text-anchor="end">1.288</text>
<line class="grid" x1="55.0" y1="208.0" x2="450.0" y2="208.0"/>
<text x="47.0" y="212.0" text-anchor="end">0.922</text>
<line class="grid" x1="55.0" y1="259.0" x2="450.0" y2="259.0"/>
<text x="47.0" y="263.0" text-anchor="end">0.557</text>
<line class="grid" x1="55.0" y1="310.0" x2="450.0" y2="310.0"/>
<text x="47.0" y="314.0" text-anchor="end">0.191</text>
<line class="axis" x1="55.0" y1="55" x2="55.0" y2="310"/>
<line class="axis" x1="55.0" y1="310" x2="450.0" y2="310"/>
<polyline class="train" points="55.0,55.0 65.4,273.7 75.8,283.6 86.2,289.5 96.6,292.2 107.0,293.4 117.4,295.3 127.8,295.0 138.2,297.6 148.6,301.1 158.9,300.4 169.3,301.5 179.7,302.3 190.1,302.5 200.5,302.8 210.9,302.8 221.3,304.2 231.7,303.1 242.1,305.4 252.5,305.6 262.9,305.5 273.3,305.8 283.7,307.6 294.1,307.5 304.5,307.5 314.9,308.0 325.3,307.6 335.7,307.8 346.1,309.2 356.4,307.7 366.8,308.8 377.2,308.3 387.6,308.4 398.0,309.0 408.4,309.1 418.8,308.9 429.2,308.7 439.6,309.4 450.0,309.5"/>
<polyline class="validation" points="55.0,267.6 65.4,293.0 75.8,294.2 86.2,298.0 96.6,298.6 107.0,301.6 117.4,298.6 127.8,298.6 138.2,297.9 148.6,300.5 158.9,301.1 169.3,304.7 179.7,303.2 190.1,304.6 200.5,306.4 210.9,301.1 221.3,304.5 231.7,302.5 242.1,307.4 252.5,306.6 262.9,306.5 273.3,306.9 283.7,309.2 294.1,308.0 304.5,309.3 314.9,307.1 325.3,308.0 335.7,308.6 346.1,307.7 356.4,309.9 366.8,307.0 377.2,310.0 387.6,309.2 398.0,309.5 408.4,310.0 418.8,310.0 429.2,309.4 439.6,306.9 450.0,309.4"/>
<text x="252.5" y="348" text-anchor="middle">Epoch</text>
<line class="train" x1="55.0" y1="350" x2="79.0" y2="350"/><text x="85.0" y="354">training</text>
<line class="validation" x1="170.0" y1="350" x2="194.0" y2="350"/><text x="200.0" y="354">validation</text>
<text class="title" x="510.0" y="28">Accuracy</text>
<line class="grid" x1="510.0" y1="55.0" x2="905.0" y2="55.0"/>
<text x="502.0" y="59.0" text-anchor="end">1.000</text>
<line class="grid" x1="510.0" y1="106.0" x2="905.0" y2="106.0"/>
<text x="502.0" y="110.0" text-anchor="end">0.800</text>
<line class="grid" x1="510.0" y1="157.0" x2="905.0" y2="157.0"/>
<text x="502.0" y="161.0" text-anchor="end">0.600</text>
<line class="grid" x1="510.0" y1="208.0" x2="905.0" y2="208.0"/>
<text x="502.0" y="212.0" text-anchor="end">0.400</text>
<line class="grid" x1="510.0" y1="259.0" x2="905.0" y2="259.0"/>
<text x="502.0" y="263.0" text-anchor="end">0.200</text>
<line class="grid" x1="510.0" y1="310.0" x2="905.0" y2="310.0"/>
<text x="502.0" y="314.0" text-anchor="end">0.000</text>
<line class="axis" x1="510.0" y1="55" x2="510.0" y2="310"/>
<line class="axis" x1="510.0" y1="310" x2="905.0" y2="310"/>
<polyline class="train" points="510.0,185.3 520.4,89.4 530.8,86.1 541.2,83.8 551.6,82.6 562.0,81.9 572.4,81.3 582.8,81.3 593.2,80.1 603.6,78.3 613.9,78.9 624.3,78.5 634.7,78.2 645.1,77.7 655.5,77.4 665.9,77.6 676.3,76.9 686.7,77.3 697.1,76.1 707.5,76.2 717.9,76.3 728.3,76.0 738.7,75.2 749.1,75.0 759.5,74.9 769.9,74.9 780.3,74.9 790.7,75.0 801.1,74.2 811.4,74.8 821.8,74.3 832.2,74.8 842.6,74.7 853.0,74.3 863.4,74.3 873.8,74.2 884.2,74.6 894.6,74.0 905.0,74.2"/>
<polyline class="validation" points="510.0,92.3 520.4,81.1 530.8,81.5 541.2,80.4 551.6,79.5 562.0,78.3 572.4,78.7 582.8,78.7 593.2,80.4 603.6,77.7 613.9,78.9 624.3,75.3 634.7,77.2 645.1,75.6 655.5,74.7 665.9,78.2 676.3,75.4 686.7,76.5 697.1,74.0 707.5,75.1 717.9,75.6 728.3,74.2 738.7,73.2 749.1,73.8 759.5,73.1 769.9,73.8 780.3,73.8 790.7,73.6 801.1,73.7 811.4,72.8 821.8,74.3 832.2,72.9 842.6,72.6 853.0,72.4 863.4,72.8 873.8,72.1 884.2,73.2 894.6,73.7 905.0,72.6"/>
<text x="707.5" y="348" text-anchor="middle">Epoch</text>
<line class="train" x1="510.0" y1="350" x2="534.0" y2="350"/><text x="540.0" y="354">training</text>
<line class="validation" x1="625.0" y1="350" x2="649.0" y2="350"/><text x="655.0" y="354">validation</text>
</svg>