<svg xmlns="http://www.w3.org/2000/svg" width="960" height="380" viewBox="0 0 960 380">
<rect width="100%" height="100%" fill="white"/>
<style>text{font-family:Segoe UI,Arial;font-size:13px;fill:#111827}.title{font-size:18px;font-weight:600}.grid{stroke:#d1d5db;stroke-width:1}.axis{stroke:#111827;stroke-width:1.5}.train{stroke:#2563eb;fill:none;stroke-width:2.5}.validation{stroke:#dc2626;fill:none;stroke-width:2.5}</style>
<text class="title" x="55.0" y="28">Loss</text>
<line class="grid" x1="55.0" y1="55.0" x2="450.0" y2="55.0"/>
<text x="47.0" y="59.0" text-anchor="end">1.481</text>
<line class="grid" x1="55.0" y1="106.0" x2="450.0" y2="106.0"/>
<text x="47.0" y="110.0" text-anchor="end">1.221</text>
<line class="grid" x1="55.0" y1="157.0" x2="450.0" y2="157.0"/>
<text x="47.0" y="161.0" text-anchor="end">0.961</text>
<line class="grid" x1="55.0" y1="208.0" x2="450.0" y2="208.0"/>
<text x="47.0" y="212.0" text-anchor="end">0.701</text>
<line class="grid" x1="55.0" y1="259.0" x2="450.0" y2="259.0"/>
<text x="47.0" y="263.0" text-anchor="end">0.441</text>
<line class="grid" x1="55.0" y1="310.0" x2="450.0" y2="310.0"/>
<text x="47.0" y="314.0" text-anchor="end">0.181</text>
<line class="axis" x1="55.0" y1="55" x2="55.0" y2="310"/>
<line class="axis" x1="55.0" y1="310" x2="450.0" y2="310"/>
<polyline class="train" points="55.0,55.0 65.4,268.2 75.8,278.7 86.2,285.7 96.6,288.1 107.0,289.7 117.4,292.0 127.8,292.5 138.2,295.3 148.6,297.3 158.9,300.0 169.3,300.3 179.7,301.8 190.1,300.9 200.5,302.5 210.9,302.1 221.3,304.0 231.7,305.8 242.1,305.6 252.5,304.4 262.9,303.5 273.3,304.9 283.7,305.9 294.1,306.2 304.5,307.4 314.9,306.8 325.3,307.9 335.7,308.7 346.1,308.3 356.4,308.8 366.8,308.4 377.2,308.5 387.6,308.5 398.0,309.1 408.4,308.9 418.8,309.3 429.2,309.2 439.6,308.8 450.0,310.0"/>
<polyline class="validation" points="55.0,260.4 65.4,261.1 75.8,283.2 86.2,289.1 96.6,289.9 107.0,290.7 117.4,289.8 127.8,280.9 138.2,290.0 148.6,293.4 158.9,291.3 169.3,285.3 179.7,295.5 190.1,294.1 200.5,293.3 210.9,290.2 221.3,299.0 231.7,296.1 242.1,300.5 252.5,300.7 262.9,300.8 273.3,295.8 283.7,300.3 294.1,296.2 304.5,301.5 314.9,301.8 325.3,301.5 335.7,303.5 346.1,301.4 356.4,301.8 366.8,302.1 377.2,304.6 387.6,301.9 398.0,303.9 408.4,303.8 418.8,304.0 429.2,303.2 439.6,300.6 450.0,302.5"/>
<text x="252.5" y="348" text-anchor="middle">Epoch</text>
<line class="train" x1="55.0" y1="350" x2="79.0" y2="350"/><text x="85.0" y="354">training</text>
<line class="validation" x1="170.0" y1="350" x2="194.0" y2="350"/><text x="200.0" y="354">validation</text>
<text class="title" x="510.0" y="28">Accuracy</text>
<line class="grid" x1="510.0" y1="55.0" x2="905.0" y2="55.0"/>
<text x="502.0" y="59.0" text-anchor="end">1.000</text>
<line class="grid" x1="510.0" y1="106.0" x2="905.0" y2="106.0"/>
<text x="502.0" y="110.0" text-anchor="end">0.800</text>
<line class="grid" x1="510.0" y1="157.0" x2="905.0" y2="157.0"/>
<text x="502.0" y="161.0" text-anchor="end">0.600</text>
<line class="grid" x1="510.0" y1="208.0" x2="905.0" y2="208.0"/>
<text x="502.0" y="212.0" text-anchor="end">0.400</text>
<line class="grid" x1="510.0" y1="259.0" x2="905.0" y2="259.0"/>
<text x="502.0" y="263.0" text-anchor="end">0.200</text>
<line class="grid" x1="510.0" y1="310.0" x2="905.0" y2="310.0"/>
<text x="502.0" y="314.0" text-anchor="end">0.000</text>
<line class="axis" x1="510.0" y1="55" x2="510.0" y2="310"/>
<line class="axis" x1="510.0" y1="310" x2="905.0" y2="310"/>
<polyline class="train" points="510.0,146.6 520.4,85.6 530.8,83.0 541.2,80.8 551.6,79.9 562.0,79.6 572.4,78.9 582.8,78.7 593.2,77.7 603.6,77.2 613.9,76.4 624.3,76.1 634.7,75.5 645.1,76.0 655.5,75.5 665.9,75.5 676.3,74.8 686.7,74.1 697.1,74.2 707.5,74.7 717.9,75.1 728.3,74.3 738.7,73.9 749.1,73.7 759.5,73.5 769.9,73.8 780.3,73.3 790.7,73.1 801.1,73.3 811.4,72.9 821.8,73.2 832.2,73.2 842.6,72.9 853.0,72.7 863.4,73.0 873.8,72.7 884.2,72.8 894.6,73.1 905.0,72.5"/>
<polyline class="validation" points="510.0,87.3 520.4,93.8 530.8,81.8 541.2,79.7 551.6,80.2 562.0,79.4 572.4,79.7 582.8,84.2 593.2,79.6 603.6,79.2 613.9,79.7 624.3,82.5 634.7,78.0 645.1,79.5 655.5,79.4 665.9,81.0 676.3,76.8 686.7,77.3 697.1,77.2 707.5,77.5 717.9,76.5 728.3,77.5 738.7,76.2 749.1,78.0 759.5,75.7 769.9,75.6 780.3,75.7 790.7,75.2 801.1,75.6 811.4,76.0 821.8,75.4 832.2,74.4 842.6,75.3 853.0,73.7 863.4,75.1 873.8,74.2 884.2,74.7 894.6,75.8 905.0,74.5"/>
<text x="707.5" y="348" text-anchor="middle">Epoch</text>
<line class="train" x1="510.0" y1="350" x2="534.0" y2="350"/><text x="540.0" y="354">training</text>
<line class="validation" x1="625.0" y1="350" x2="649.0" y2="350"/><text x="655.0" y="354">validation</text>
</svg>